<?xml version="1.0" encoding="UTF-8" standalone="no"?><!DOCTYPE svg PUBLIC "-//W3C//DTD SVG 1.1//EN"
    "http://www.w3.org/Graphics/SVG/1.1/DTD/svg11.dtd">
<svg style="fill-rule:evenodd;clip-rule:evenodd;stroke-linejoin:round;stroke-miterlimit:2;"
    height="100%" version="1.1" viewBox="0 0 40 40" width="100%" xmlns="http://www.w3.org/2000/svg"
    xml:space="preserve">
    <g transform="matrix(0.784314,0,0,1,-3.92157,-8)">
        <path style="fill:rgb(46,108,255);"
            d="M56,26C56,24.896 54.857,24 53.45,24L7.55,24C6.143,24 5,24.896 5,26L5,30C5,31.104 6.143,32 7.55,32L53.45,32C54.857,32 56,31.104 56,30L56,26Z" />
    </g>
    <g transform="matrix(0.156863,0,0,1,15.2157,-20)">
        <path style="fill:rgb(46,108,255);"
            d="M56,26C56,24.896 50.287,24 43.25,24L17.75,24C10.713,24 5,24.896 5,26L5,30C5,31.104 10.713,32 17.75,32L43.25,32C50.287,32 56,31.104 56,30L56,26Z" />
    </g>
    <g transform="matrix(0.156863,0,0,1,15.2157,4)">
        <path style="fill:rgb(46,108,255);"
            d="M56,26C56,24.896 50.287,24 43.25,24L17.75,24C10.713,24 5,24.896 5,26L5,30C5,31.104 10.713,32 17.75,32L43.25,32C50.287,32 56,31.104 56,30L56,26Z" />
    </g>
</svg>
