<?xml version="1.0" encoding="UTF-8" standalone="no"?>
<svg xmlns:cc="http://creativecommons.org/ns#" xmlns:dc="http://purl.org/dc/elements/1.1/"
    xmlns:inkscape="http://www.inkscape.org/namespaces/inkscape"
    xmlns:rdf="http://www.w3.org/1999/02/22-rdf-syntax-ns#"
    xmlns:sodipodi="http://sodipodi.sourceforge.net/DTD/sodipodi-0.dtd" height="39.792179mm"
    id="svg650" version="1.1" viewBox="0 0 40.385422 39.792179" width="40.385422mm"
    xmlns="http://www.w3.org/2000/svg" inkscape:version="1.0 (4035a4fb49, 2020-05-01)"
    sodipodi:docname="star.svg">
  <defs id="defs644" />
  <sodipodi:namedview bordercolor="#666666" borderopacity="1.0" fit-margin-bottom="0"
      fit-margin-left="0" fit-margin-right="0" fit-margin-top="0" id="base" pagecolor="#ffffff"
      showgrid="false" inkscape:current-layer="layer1" inkscape:cx="193.46175"
      inkscape:cy="335.19783" inkscape:document-rotation="0" inkscape:document-units="mm"
      inkscape:pageopacity="0.0" inkscape:pageshadow="2" inkscape:window-height="1080"
      inkscape:window-maximized="0" inkscape:window-width="1261" inkscape:window-x="1946"
      inkscape:window-y="26" inkscape:zoom="0.35" />
  <metadata id="metadata647">
    <rdf:RDF>
      <cc:Work rdf:about="">
        <dc:format>image/svg+xml</dc:format>
        <dc:type rdf:resource="http://purl.org/dc/dcmitype/StillImage" />
        <dc:title></dc:title>
      </cc:Work>
    </rdf:RDF>
  </metadata>
  <g id="layer1" transform="translate(-54.646578,-59.478908)" inkscape:groupmode="layer"
      inkscape:label="Layer 1">
    <g style="display:inline;opacity:0.99" id="g1232" transform="translate(196.65403,-212.49394)">
      <g id="g1230" transform="translate(4.9212213,1.1857013)"
          inkscape:export-filename="/home/chris/Projects/Games/MathOps/assets/star.png"
          inkscape:export-xdpi="96" inkscape:export-ydpi="96">
        <path style="fill:#ffffff;fill-opacity:1;stroke:none;stroke-width:0.264583"
            d="m -127.16005,270.80308 c -5.16117,1.13007 -4.32217,8.27549 -7.73828,10.8125 -3.92632,0.64955 -11.7257,-0.75906 -12.01563,5.08398 -0.3661,5.16526 6.20611,6.77015 7.84375,10.38867 -0.93681,4.04825 -4.24256,12.01803 1.85156,13.47266 5.34726,0.46818 9.33411,-8.18422 14.17774,-2.76172 2.73252,2.61008 9.14085,4.75418 10.21484,-0.51172 0.96954,-3.84222 -2.31665,-7.97028 -0.96875,-11.3125 4.53687,-2.27985 11.43806,-10.31727 3.90039,-13.38867 -3.61621,-1.53017 -9.85296,1.29646 -10.67578,-4.03515 -1.17926,-2.99185 -2.48438,-8.08522 -6.58984,-7.74805 z"
            id="path1216" inkscape:connector-curvature="0" />
        <path style="fill:#ffb200;fill-opacity:1;stroke:none;stroke-width:0.264583"
            d="m 214.4508,198.7133 c -1.76742,1.76742 -9.03982,-3.42772 -11.50856,-3.03671 -2.46874,0.39101 -7.77981,7.57918 -10.00689,6.44442 -2.22709,-1.13475 0.46649,-9.6566 -0.66826,-11.88368 -1.13476,-2.22709 -9.61233,-5.05695 -9.22132,-7.52569 0.39102,-2.46875 9.32813,-2.54039 11.09556,-4.30781 1.76742,-1.76743 1.83907,-10.70455 4.30781,-11.09556 2.46874,-0.39101 5.2986,8.08656 7.52569,9.22131 2.22709,1.13476 10.74893,-1.55882 11.88369,0.66826 1.13475,2.22709 -6.05342,7.53816 -6.44443,10.0069 -0.39101,2.46874 4.80414,9.74113 3.03671,11.50856 z"
            id="path1218" transform="rotate(9.1734538,-624.44828,-1806.2541)"
            inkscape:flatsided="false" inkscape:randomized="0" inkscape:rounded="0.21"
            inkscape:transform-center-x="0.028494791" inkscape:transform-center-y="-1.7046694"
            sodipodi:arg1="0.78539816" sodipodi:arg2="1.4137167" sodipodi:cx="201.34792"
            sodipodi:cy="185.61041" sodipodi:r1="18.530279" sodipodi:r2="10.191653"
            sodipodi:sides="5" sodipodi:type="star" />
        <path style="fill:#ffb200;fill-opacity:1;stroke:none;stroke-width:0.264583"
            d="m 214.4508,198.7133 c -1.76742,1.76742 -9.03982,-3.42772 -11.50856,-3.03671 -2.46874,0.39101 -7.77981,7.57918 -10.00689,6.44442 -2.22709,-1.13475 0.46649,-9.6566 -0.66826,-11.88368 -1.13476,-2.22709 -9.61233,-5.05695 -9.22132,-7.52569 0.39102,-2.46875 9.32813,-2.54039 11.09556,-4.30781 1.76742,-1.76743 1.83907,-10.70455 4.30781,-11.09556 2.46874,-0.39101 5.2986,8.08656 7.52569,9.22131 2.22709,1.13476 10.74893,-1.55882 11.88369,0.66826 1.13475,2.22709 -6.05342,7.53816 -6.44443,10.0069 -0.39101,2.46874 4.80414,9.74113 3.03671,11.50856 z"
            id="path1220" transform="rotate(9.1734538,-624.44828,-1806.2541)"
            inkscape:flatsided="false" inkscape:randomized="0" inkscape:rounded="0.21"
            inkscape:transform-center-x="0.028494791" inkscape:transform-center-y="-1.7046694"
            sodipodi:arg1="0.78539816" sodipodi:arg2="1.4137167" sodipodi:cx="201.34792"
            sodipodi:cy="185.61041" sodipodi:r1="18.530279" sodipodi:r2="10.191653"
            sodipodi:sides="5" sodipodi:type="star" />
        <g id="g1228" transform="translate(-334.65224,95.623395)"
            inkscape:export-filename="/home/chris/Projects/Games/MathOps/assets/star.png"
            inkscape:export-xdpi="96" inkscape:export-ydpi="96">
          <path style="fill:#c98000;fill-opacity:1;stroke:none;stroke-width:0.264583"
              d="m 214.4508,198.7133 c -1.76742,1.76742 -9.03982,-3.42772 -11.50856,-3.03671 -2.46874,0.39101 -7.77981,7.57918 -10.00689,6.44442 -2.22709,-1.13475 0.46649,-9.6566 -0.66826,-11.88368 -1.13476,-2.22709 -9.61233,-5.05695 -9.22132,-7.52569 0.39102,-2.46875 9.32813,-2.54039 11.09556,-4.30781 1.76742,-1.76743 1.83907,-10.70455 4.30781,-11.09556 2.46874,-0.39101 5.2986,8.08656 7.52569,9.22131 2.22709,1.13476 10.74893,-1.55882 11.88369,0.66826 1.13475,2.22709 -6.05342,7.53816 -6.44443,10.0069 -0.39101,2.46874 4.80414,9.74113 3.03671,11.50856 z"
              id="path1222"
              transform="matrix(0.98721024,0.17018505,-0.15942381,1.0538478,38.705781,-32.457599)"
              inkscape:flatsided="false" inkscape:randomized="0" inkscape:rounded="0.21"
              inkscape:transform-center-x="0.028493636" inkscape:transform-center-y="18.451583"
              sodipodi:arg1="0.78539816" sodipodi:arg2="1.4137167" sodipodi:cx="201.34792"
              sodipodi:cy="185.61041" sodipodi:r1="18.530279" sodipodi:r2="10.191653"
              sodipodi:sides="5" sodipodi:type="star" />
          <path style="fill:#ffb200;fill-opacity:1;stroke:none;stroke-width:0.264583"
              d="m 214.4508,198.7133 c -1.76742,1.76742 -9.03982,-3.42772 -11.50856,-3.03671 -2.46874,0.39101 -7.77981,7.57918 -10.00689,6.44442 -2.22709,-1.13475 0.46649,-9.6566 -0.66826,-11.88368 -1.13476,-2.22709 -9.61233,-5.05695 -9.22132,-7.52569 0.39102,-2.46875 9.32813,-2.54039 11.09556,-4.30781 1.76742,-1.76743 1.83907,-10.70455 4.30781,-11.09556 2.46874,-0.39101 5.2986,8.08656 7.52569,9.22131 2.22709,1.13476 10.74893,-1.55882 11.88369,0.66826 1.13475,2.22709 -6.05342,7.53816 -6.44443,10.0069 -0.39101,2.46874 4.80414,9.74113 3.03671,11.50856 z"
              id="path1224" transform="rotate(9.1734538,138.84838,231.64635)"
              inkscape:flatsided="false" inkscape:randomized="0" inkscape:rounded="0.21"
              inkscape:transform-center-x="0.028494791" inkscape:transform-center-y="-1.7046694"
              sodipodi:arg1="0.78539816" sodipodi:arg2="1.4137167" sodipodi:cx="201.34792"
              sodipodi:cy="185.61041" sodipodi:r1="18.530279" sodipodi:r2="10.191653"
              sodipodi:sides="5" sodipodi:type="star" />
          <path
              style="fill:#ffffff;fill-opacity:0.29375;stroke:none;stroke-width:0.264583px;stroke-linecap:butt;stroke-linejoin:miter;stroke-opacity:1"
              d="m 207.94389,177.63309 c -2.4995,-0.008 -3.99526,8.8035 -6.02185,10.26655 -2.0266,1.46305 -10.86052,0.10925 -11.64012,2.48409 -0.77958,2.37483 7.1382,6.51968 7.9034,8.8992 0.63015,1.9596 -1.98063,7.71711 -1.79576,10.51305 6.73484,-4.81308 14.2173,-13.41785 19.85202,-21.20232 -1.02119,-0.12403 -1.86872,-0.31446 -2.33836,-0.65784 -2.0177,-1.47529 -3.45983,-10.29517 -5.95933,-10.30273 z"
              id="path1226" inkscape:connector-curvature="0" />
        </g>
      </g>
    </g>
  </g>
</svg>
