<?xml version="1.0" encoding="UTF-8" standalone="no"?><!DOCTYPE svg PUBLIC "-//W3C//DTD SVG 1.1//EN"
    "http://www.w3.org/Graphics/SVG/1.1/DTD/svg11.dtd">
<svg xmlns:serif="http://www.serif.com/" style="fill-rule:evenodd;clip-rule:evenodd;" height="100%"
    version="1.1" viewBox="0 0 186 186" width="100%" xmlns="http://www.w3.org/2000/svg"
    xml:space="preserve">
    <g transform="matrix(1,0,0,1,-506.685,-1523.5)">
        <g transform="matrix(1,0,0,1,-115,-449)">
            <g transform="matrix(1.05797,0,0,1.05797,-182.369,353.812)">
                <path style="fill:rgb(255,254,253);"
                    d="M935.809,1573.95C935.809,1549.69 916.115,1530 891.857,1530L803.952,1530C779.694,1530 760,1549.69 760,1573.95L760,1661.86C760,1686.12 779.694,1705.81 803.952,1705.81L891.857,1705.81C916.115,1705.81 935.809,1686.12 935.809,1661.86L935.809,1573.95Z" />
            </g>
        </g>
        <g transform="matrix(1,0,0,1,-115,-449)">
            <g id="path1473" transform="matrix(0.197237,0,0,0.197237,1089.24,1980.19)">
                <circle style="fill:rgb(255,157,43);" cx="-1899" cy="432.52" r="225.906" />
            </g>
        </g>
        <g transform="matrix(1,0,0,1,-115,-449)">
            <g id="path1505" transform="matrix(0.49541,0,0,0.49541,1695.47,1811.23)">
                <circle
                    style="fill:white;stroke:rgb(255,157,43);stroke-opacity:0.98;stroke-width:11.34px;"
                    cx="-2065.64" cy="598.08" r="60.345" />
            </g>
        </g>
        <g transform="matrix(1,0,0,1,-115,-449)">
            <g id="circle1507" transform="matrix(0.49541,0,0,0.49541,1615.47,1811.23)">
                <circle
                    style="fill:white;stroke:rgb(255,157,43);stroke-opacity:0.98;stroke-width:11.34px;"
                    cx="-1739.16" cy="598.08" r="60.345" />
            </g>
        </g>
        <g transform="matrix(1,0,0,1,-115,-449)">
            <g id="circle1513" transform="matrix(0.49541,0,0,0.49541,1695.47,1891.23)">
                <circle
                    style="fill:white;fill-opacity:0.96;stroke:rgb(255,157,43);stroke-opacity:0.98;stroke-width:11.34px;"
                    cx="-2065.64" cy="266.959" r="60.345" />
            </g>
        </g>
        <g transform="matrix(1,0,0,1,-115,-449)">
            <g id="circle1515" transform="matrix(0.49541,0,0,0.49541,1615.47,1891.23)">
                <circle
                    style="fill:white;stroke:rgb(255,157,43);stroke-opacity:0.98;stroke-width:11.34px;"
                    cx="-1739.16" cy="266.959" r="60.345" />
            </g>
        </g>
        <g transform="matrix(1,0,0,1,-115,-449)">
            <g transform="matrix(42.275,0,0,42.275,659.172,2036.18)">
                <path style="fill:rgb(46,107,255);fill-rule:nonzero;"
                    d="M0.372,-0.241L0.372,-0.059C0.372,-0.052 0.369,-0.045 0.364,-0.04C0.359,-0.035 0.352,-0.032 0.345,-0.032L0.269,-0.032C0.262,-0.032 0.255,-0.035 0.25,-0.04C0.245,-0.045 0.242,-0.052 0.242,-0.059L0.242,-0.241L0.063,-0.241C0.056,-0.241 0.049,-0.244 0.044,-0.249C0.039,-0.254 0.036,-0.261 0.036,-0.268L0.036,-0.334C0.036,-0.341 0.039,-0.348 0.044,-0.353C0.049,-0.358 0.056,-0.361 0.063,-0.361L0.242,-0.361L0.242,-0.542C0.242,-0.549 0.245,-0.556 0.25,-0.561C0.255,-0.566 0.262,-0.569 0.269,-0.569L0.345,-0.569C0.352,-0.569 0.359,-0.566 0.364,-0.561C0.369,-0.556 0.372,-0.549 0.372,-0.542L0.372,-0.361L0.55,-0.361C0.557,-0.361 0.564,-0.358 0.569,-0.353C0.574,-0.348 0.577,-0.341 0.577,-0.334L0.577,-0.268C0.577,-0.261 0.574,-0.254 0.569,-0.249C0.564,-0.244 0.557,-0.241 0.55,-0.241L0.372,-0.241Z" />
            </g>
        </g>
        <g transform="matrix(1,0,0,1,-115,-449)">
            <g transform="matrix(29.8929,29.8929,-29.8929,29.8929,653.969,2107.33)">
                <path style="fill:rgb(46,107,255);fill-rule:nonzero;"
                    d="M0.372,-0.241L0.372,-0.035C0.372,-0.028 0.369,-0.022 0.364,-0.016C0.359,-0.011 0.352,-0.008 0.345,-0.008L0.269,-0.008C0.262,-0.008 0.255,-0.011 0.25,-0.016C0.245,-0.022 0.242,-0.028 0.242,-0.035L0.242,-0.241L0.039,-0.241C0.032,-0.241 0.026,-0.244 0.02,-0.249C0.015,-0.254 0.012,-0.261 0.012,-0.268L0.012,-0.334C0.012,-0.341 0.015,-0.348 0.02,-0.353C0.026,-0.358 0.032,-0.361 0.039,-0.361L0.242,-0.361L0.242,-0.566C0.242,-0.573 0.245,-0.579 0.25,-0.585C0.255,-0.59 0.262,-0.593 0.269,-0.593L0.345,-0.593C0.352,-0.593 0.359,-0.59 0.364,-0.585C0.369,-0.579 0.372,-0.573 0.372,-0.566L0.372,-0.361L0.574,-0.361C0.581,-0.361 0.587,-0.358 0.593,-0.353C0.598,-0.348 0.601,-0.341 0.601,-0.334L0.601,-0.268C0.601,-0.261 0.598,-0.254 0.593,-0.249C0.587,-0.244 0.581,-0.241 0.574,-0.241L0.372,-0.241Z" />
            </g>
        </g>
        <g transform="matrix(1,0,0,1,-115,-449)">
            <g transform="matrix(35.7915,0,0,42.275,740.646,2023.48)">
                <g id="text1530">
                    <path style="fill:rgb(46,107,255);fill-rule:nonzero;"
                        d="M0.077,0.06C0.07,0.06 0.063,0.057 0.058,0.052C0.053,0.047 0.05,0.04 0.05,0.033L0.05,-0.033C0.05,-0.04 0.053,-0.047 0.058,-0.052C0.063,-0.057 0.07,-0.06 0.077,-0.06L0.662,-0.06C0.669,-0.06 0.676,-0.057 0.681,-0.052C0.686,-0.047 0.689,-0.04 0.689,-0.033L0.689,0.033C0.689,0.04 0.686,0.047 0.681,0.052C0.676,0.057 0.669,0.06 0.662,0.06L0.077,0.06Z" />
                </g>
            </g>
        </g>
        <g transform="matrix(1,0,0,1,-115,-449)">
            <g transform="matrix(35.7915,0,0,42.275,740.646,2107.52)">
                <g id="text15301" serif:id="text1530">
                    <path style="fill:rgb(46,107,255);fill-rule:nonzero;"
                        d="M0.077,0.06C0.07,0.06 0.063,0.057 0.058,0.052C0.053,0.047 0.05,0.04 0.05,0.033L0.05,-0.033C0.05,-0.04 0.053,-0.047 0.058,-0.052C0.063,-0.057 0.07,-0.06 0.077,-0.06L0.662,-0.06C0.669,-0.06 0.676,-0.057 0.681,-0.052C0.686,-0.047 0.689,-0.04 0.689,-0.033L0.689,0.033C0.689,0.04 0.686,0.047 0.681,0.052C0.676,0.057 0.669,0.06 0.662,0.06L0.077,0.06Z" />
                </g>
            </g>
        </g>
        <g transform="matrix(1,0,0,1,-115,-449)">
            <g transform="matrix(42.275,0,0,42.275,748.354,2101.82)">
                <g id="text1542">
                    <path style="fill:rgb(46,107,255);fill-rule:nonzero;"
                        d="M0.177,-0.152C0.184,-0.152 0.191,-0.149 0.196,-0.144C0.201,-0.139 0.204,-0.132 0.204,-0.125L0.204,-0.027C0.204,-0.02 0.201,-0.013 0.196,-0.008C0.191,-0.003 0.184,-0 0.177,-0L0.084,-0C0.077,-0 0.07,-0.003 0.065,-0.008C0.06,-0.013 0.057,-0.02 0.057,-0.027L0.057,-0.125C0.057,-0.132 0.06,-0.139 0.065,-0.144C0.07,-0.149 0.077,-0.152 0.084,-0.152L0.177,-0.152Z" />
                </g>
            </g>
        </g>
        <g transform="matrix(1,0,0,1,-115,-449)">
            <g transform="matrix(42.275,0,0,42.275,748.354,2119.65)">
                <g id="text1546">
                    <path style="fill:rgb(46,107,255);fill-rule:nonzero;"
                        d="M0.177,-0.152C0.184,-0.152 0.191,-0.149 0.196,-0.144C0.201,-0.139 0.204,-0.132 0.204,-0.125L0.204,-0.027C0.204,-0.02 0.201,-0.013 0.196,-0.008C0.191,-0.003 0.184,-0 0.177,-0L0.084,-0C0.077,-0 0.07,-0.003 0.065,-0.008C0.06,-0.013 0.057,-0.02 0.057,-0.027L0.057,-0.125C0.057,-0.132 0.06,-0.139 0.065,-0.144C0.07,-0.149 0.077,-0.152 0.084,-0.152L0.177,-0.152Z" />
                </g>
            </g>
        </g>
    </g>
</svg>
