<?xml version="1.0" encoding="UTF-8" standalone="no"?><!DOCTYPE svg PUBLIC "-//W3C//DTD SVG 1.1//EN"
    "http://www.w3.org/Graphics/SVG/1.1/DTD/svg11.dtd">
<svg style="fill-rule:evenodd;clip-rule:evenodd;stroke-linejoin:round;stroke-miterlimit:2;"
    height="100%" version="1.1" viewBox="0 0 520 520" width="100%"
    xmlns="http://www.w3.org/2000/svg" xml:space="preserve">
    <g transform="matrix(0.995025,0,0,0.995025,-6.66667,-18.607)">
        <circle style="fill:white;" cx="268" cy="280" r="201" />
    </g>
    <g transform="matrix(0.917431,0,0,0.917431,8.4633,31.5596)">
        <circle style="fill:white;" cx="102.5" cy="412.5" r="54.5" />
    </g>
    <g transform="matrix(0.917431,0,0,0.917431,8.4633,31.5596)">
        <path style="fill:rgb(255,157,43);"
            d="M102.5,352.55C69.413,352.55 42.55,379.413 42.55,412.5C42.55,445.587 69.413,472.45 102.5,472.45C135.587,472.45 162.45,445.587 162.45,412.5C162.45,379.413 135.587,352.55 102.5,352.55ZM102.5,363.45C129.571,363.45 151.55,385.429 151.55,412.5C151.55,439.571 129.571,461.55 102.5,461.55C75.429,461.55 53.45,439.571 53.45,412.5C53.45,385.429 75.429,363.45 102.5,363.45Z" />
    </g>
    <g transform="matrix(0.917431,0,0,0.917431,315.963,34.0596)">
        <circle style="fill:white;" cx="102.5" cy="412.5" r="54.5" />
    </g>
    <g transform="matrix(0.917431,0,0,0.917431,315.963,34.0596)">
        <path style="fill:rgb(255,157,43);"
            d="M102.5,352.55C69.413,352.55 42.55,379.413 42.55,412.5C42.55,445.587 69.413,472.45 102.5,472.45C135.587,472.45 162.45,445.587 162.45,412.5C162.45,379.413 135.587,352.55 102.5,352.55ZM102.5,363.45C129.571,363.45 151.55,385.429 151.55,412.5C151.55,439.571 129.571,461.55 102.5,461.55C75.429,461.55 53.45,439.571 53.45,412.5C53.45,385.429 75.429,363.45 102.5,363.45Z" />
    </g>
    <g transform="matrix(0.917431,0,0,0.917431,315.963,-268.44)">
        <circle style="fill:white;" cx="102.5" cy="412.5" r="54.5" />
    </g>
    <g transform="matrix(0.917431,0,0,0.917431,315.963,-268.44)">
        <path style="fill:rgb(255,157,43);"
            d="M102.5,352.55C69.413,352.55 42.55,379.413 42.55,412.5C42.55,445.587 69.413,472.45 102.5,472.45C135.587,472.45 162.45,445.587 162.45,412.5C162.45,379.413 135.587,352.55 102.5,352.55ZM102.5,363.45C129.571,363.45 151.55,385.429 151.55,412.5C151.55,439.571 129.571,461.55 102.5,461.55C75.429,461.55 53.45,439.571 53.45,412.5C53.45,385.429 75.429,363.45 102.5,363.45Z" />
    </g>
    <g transform="matrix(0.784314,0,0,1,386.078,82)">
        <path style="fill:rgb(46,108,255);"
            d="M56,26C56,24.896 54.857,24 53.45,24L7.55,24C6.143,24 5,24.896 5,26L5,30C5,31.104 6.143,32 7.55,32L53.45,32C54.857,32 56,31.104 56,30L56,26Z" />
    </g>
    <g transform="matrix(0.917431,0,0,0.917431,8.4633,-268.44)">
        <circle style="fill:white;" cx="102.5" cy="412.5" r="54.5" />
    </g>
    <g transform="matrix(0.917431,0,0,0.917431,8.4633,-268.44)">
        <path style="fill:rgb(255,157,43);"
            d="M102.5,352.55C69.413,352.55 42.55,379.413 42.55,412.5C42.55,445.587 69.413,472.45 102.5,472.45C135.587,472.45 162.45,445.587 162.45,412.5C162.45,379.413 135.587,352.55 102.5,352.55ZM102.5,363.45C129.571,363.45 151.55,385.429 151.55,412.5C151.55,439.571 129.571,461.55 102.5,461.55C75.429,461.55 53.45,439.571 53.45,412.5C53.45,385.429 75.429,363.45 102.5,363.45Z" />
    </g>
    <g transform="matrix(1,0,0,1,390,392.5)">
        <path style="fill:rgb(46,108,255);"
            d="M24,30C24,28.896 23.104,28 22,28L18,28C16.896,28 16,28.896 16,30L16,34C16,35.104 16.896,36 18,36L22,36C23.104,36 24,35.104 24,34L24,30ZM40,18C40,16.896 39.104,16 38,16L2,16C0.896,16 0,16.896 0,18L0,22C0,23.104 0.896,24 2,24L38,24C39.104,24 40,23.104 40,22L40,18ZM24,6C24,4.896 23.104,4 22,4L18,4C16.896,4 16,4.896 16,6L16,10C16,11.104 16.896,12 18,12L22,12C23.104,12 24,11.104 24,10L24,6Z" />
    </g>
    <g transform="matrix(1,0,0,1,82.5,90)">
        <path style="fill:rgb(46,108,255);"
            d="M16,16L16,2C16,0.896 16.896,0 18,0L22,0C23.104,0 24,0.896 24,2L24,16L38,16C39.104,16 40,16.896 40,18L40,22C40,23.104 39.104,24 38,24L24,24L24,38C24,39.104 23.104,40 22,40L18,40C16.896,40 16,39.104 16,38L16,24L2,24C0.896,24 0,23.104 0,22L0,18C0,16.896 0.896,16 2,16L16,16Z" />
    </g>
    <g transform="matrix(1,0,0,1,82.5,390)">
        <path style="fill:rgb(46,108,255);"
            d="M14.343,20L4.444,10.101C3.663,9.32 3.663,8.053 4.444,7.272L7.272,4.444C8.053,3.663 9.32,3.663 10.101,4.444L20,14.343L29.899,4.444C30.68,3.663 31.947,3.663 32.728,4.444L35.556,7.272C36.337,8.053 36.337,9.32 35.556,10.101L25.657,20L35.556,29.899C36.337,30.68 36.337,31.947 35.556,32.728L32.728,35.556C31.947,36.337 30.68,36.337 29.899,35.556L20,25.657L10.101,35.556C9.32,36.337 8.053,36.337 7.272,35.556L4.444,32.728C3.663,31.947 3.663,30.68 4.444,29.899L14.343,20Z" />
    </g>
    <g transform="matrix(1,0,0,1,-149.368,35.0969)">
        <g transform="matrix(100,0,0,100,184.518,250.903)">
            <path style="fill:rgb(46,108,255);fill-rule:nonzero;"
                d="M0.386,-0.168C0.376,-0.168 0.368,-0.171 0.363,-0.177C0.357,-0.182 0.352,-0.188 0.349,-0.193L0.255,-0.358L0.255,-0.027C0.255,-0.02 0.252,-0.013 0.247,-0.008C0.242,-0.003 0.235,-0 0.228,-0L0.097,-0C0.09,-0 0.083,-0.003 0.078,-0.008C0.073,-0.013 0.07,-0.02 0.07,-0.027L0.07,-0.673C0.07,-0.68 0.073,-0.687 0.078,-0.692C0.083,-0.697 0.09,-0.7 0.097,-0.7L0.213,-0.7C0.226,-0.7 0.236,-0.696 0.243,-0.689C0.25,-0.682 0.254,-0.676 0.256,-0.673L0.418,-0.396L0.58,-0.673C0.582,-0.676 0.586,-0.682 0.593,-0.689C0.6,-0.696 0.61,-0.7 0.623,-0.7L0.739,-0.7C0.746,-0.7 0.753,-0.697 0.758,-0.692C0.763,-0.687 0.766,-0.68 0.766,-0.673L0.766,-0.027C0.766,-0.02 0.763,-0.013 0.758,-0.008C0.753,-0.003 0.746,-0 0.739,-0L0.608,-0C0.601,-0 0.594,-0.003 0.589,-0.008C0.584,-0.013 0.581,-0.02 0.581,-0.027L0.581,-0.358L0.487,-0.193C0.484,-0.188 0.479,-0.182 0.473,-0.177C0.468,-0.171 0.46,-0.168 0.45,-0.168L0.386,-0.168Z" />
        </g>
        <g transform="matrix(100,0,0,100,184.518,250.903)">
            <path style="fill:white;"
                d="M0.325,-0.117L0.325,-0.027C0.325,-0.001 0.316,0.022 0.296,0.041C0.277,0.061 0.254,0.07 0.228,0.07L0.097,0.07C0.071,0.07 0.048,0.061 0.029,0.041C0.009,0.022 0,-0.001 0,-0.027L0,-0.673C0,-0.699 0.009,-0.722 0.029,-0.741C0.048,-0.761 0.071,-0.77 0.097,-0.77C0.097,-0.77 0.213,-0.77 0.213,-0.77C0.25,-0.77 0.276,-0.756 0.295,-0.736C0.306,-0.724 0.313,-0.715 0.316,-0.709L0.418,-0.535L0.52,-0.709C0.523,-0.715 0.53,-0.724 0.541,-0.736C0.56,-0.756 0.586,-0.77 0.623,-0.77C0.623,-0.77 0.739,-0.77 0.739,-0.77C0.765,-0.77 0.788,-0.761 0.807,-0.741C0.827,-0.722 0.836,-0.699 0.836,-0.673C0.836,-0.673 0.836,-0.027 0.836,-0.027C0.836,-0.001 0.827,0.022 0.807,0.041C0.788,0.061 0.765,0.07 0.739,0.07L0.608,0.07C0.582,0.07 0.559,0.061 0.54,0.041C0.52,0.022 0.511,-0.001 0.511,-0.027L0.511,-0.117C0.495,-0.105 0.475,-0.098 0.45,-0.098L0.386,-0.098C0.361,-0.098 0.341,-0.105 0.325,-0.117ZM0.386,-0.168C0.376,-0.168 0.368,-0.171 0.362,-0.176C0.357,-0.182 0.352,-0.188 0.349,-0.193L0.255,-0.358L0.255,-0.027C0.255,-0.02 0.252,-0.013 0.247,-0.008C0.242,-0.003 0.235,0 0.228,0L0.097,0C0.09,0 0.083,-0.003 0.078,-0.008C0.073,-0.013 0.07,-0.02 0.07,-0.027L0.07,-0.673C0.07,-0.68 0.073,-0.687 0.078,-0.692C0.083,-0.697 0.09,-0.7 0.097,-0.7L0.213,-0.7C0.226,-0.7 0.236,-0.696 0.243,-0.689C0.25,-0.682 0.254,-0.676 0.256,-0.673L0.418,-0.396L0.58,-0.673C0.582,-0.676 0.586,-0.682 0.593,-0.689C0.6,-0.696 0.61,-0.7 0.623,-0.7L0.739,-0.7C0.746,-0.7 0.753,-0.697 0.758,-0.692C0.763,-0.687 0.766,-0.68 0.766,-0.673L0.766,-0.027C0.766,-0.02 0.763,-0.013 0.758,-0.008C0.753,-0.003 0.746,0 0.739,0L0.608,0C0.601,0 0.594,-0.003 0.589,-0.008C0.584,-0.013 0.581,-0.02 0.581,-0.027L0.581,-0.358L0.487,-0.193C0.484,-0.188 0.479,-0.182 0.473,-0.176C0.468,-0.171 0.46,-0.168 0.45,-0.168L0.386,-0.168Z" />
        </g>
        <g transform="matrix(100,0,0,100,268.118,250.903)">
            <path style="fill:rgb(46,108,255);fill-rule:nonzero;"
                d="M0.024,-0.148C0.024,-0.192 0.041,-0.228 0.075,-0.257C0.108,-0.286 0.163,-0.307 0.239,-0.32L0.356,-0.34C0.356,-0.356 0.352,-0.369 0.343,-0.38C0.334,-0.39 0.319,-0.395 0.298,-0.395C0.283,-0.395 0.271,-0.393 0.263,-0.389C0.254,-0.384 0.248,-0.38 0.244,-0.377C0.238,-0.372 0.232,-0.368 0.227,-0.367C0.222,-0.366 0.215,-0.365 0.208,-0.365L0.081,-0.365C0.074,-0.365 0.069,-0.367 0.065,-0.371C0.06,-0.375 0.058,-0.38 0.059,-0.387C0.06,-0.402 0.067,-0.418 0.079,-0.435C0.091,-0.452 0.108,-0.467 0.129,-0.481C0.15,-0.495 0.174,-0.507 0.203,-0.516C0.233,-0.525 0.264,-0.53 0.298,-0.53C0.339,-0.53 0.374,-0.525 0.404,-0.515C0.434,-0.505 0.459,-0.491 0.478,-0.473C0.498,-0.456 0.513,-0.435 0.522,-0.41C0.531,-0.386 0.536,-0.359 0.536,-0.33L0.536,-0.027C0.536,-0.02 0.533,-0.013 0.528,-0.008C0.523,-0.003 0.516,-0 0.509,-0L0.383,-0C0.376,-0 0.369,-0.003 0.364,-0.008C0.359,-0.013 0.356,-0.02 0.356,-0.027L0.356,-0.055C0.34,-0.035 0.32,-0.019 0.297,-0.008C0.273,0.004 0.242,0.01 0.203,0.01C0.174,0.01 0.149,0.006 0.127,-0.002C0.104,-0.01 0.086,-0.021 0.07,-0.035C0.056,-0.049 0.044,-0.066 0.036,-0.085C0.028,-0.104 0.024,-0.125 0.024,-0.148ZM0.252,-0.125C0.267,-0.125 0.28,-0.128 0.293,-0.133C0.306,-0.138 0.317,-0.144 0.326,-0.153C0.335,-0.162 0.343,-0.172 0.348,-0.184C0.353,-0.195 0.356,-0.208 0.356,-0.221L0.264,-0.207C0.246,-0.204 0.232,-0.198 0.221,-0.19C0.21,-0.182 0.204,-0.172 0.204,-0.159C0.204,-0.146 0.208,-0.138 0.217,-0.133C0.225,-0.128 0.237,-0.125 0.252,-0.125Z" />
        </g>
        <g transform="matrix(100,0,0,100,268.118,250.903)">
            <path style="fill:white;"
                d="M0.029,-0.31C0.025,-0.313 0.021,-0.316 0.017,-0.32C-0.003,-0.338 -0.014,-0.363 -0.011,-0.393C-0.008,-0.419 0.002,-0.447 0.022,-0.476C0.039,-0.499 0.061,-0.52 0.09,-0.539C0.116,-0.557 0.146,-0.571 0.182,-0.583C0.218,-0.594 0.256,-0.6 0.298,-0.6C0.347,-0.6 0.39,-0.594 0.426,-0.581C0.466,-0.568 0.499,-0.549 0.525,-0.526C0.553,-0.5 0.574,-0.47 0.587,-0.436C0.6,-0.404 0.606,-0.368 0.606,-0.33L0.606,-0.027C0.606,-0.001 0.597,0.022 0.577,0.041C0.558,0.061 0.535,0.07 0.509,0.07L0.383,0.07C0.363,0.07 0.345,0.065 0.33,0.054L0.327,0.055C0.296,0.071 0.255,0.08 0.203,0.08C0.165,0.08 0.132,0.074 0.103,0.064C0.071,0.052 0.044,0.036 0.023,0.016C0,-0.005 -0.017,-0.029 -0.029,-0.058C-0.04,-0.086 -0.046,-0.116 -0.046,-0.148C-0.046,-0.213 -0.021,-0.268 0.029,-0.31ZM0.024,-0.148C0.024,-0.192 0.041,-0.228 0.075,-0.257C0.108,-0.286 0.163,-0.307 0.239,-0.32L0.356,-0.34C0.356,-0.356 0.352,-0.369 0.343,-0.379C0.334,-0.39 0.319,-0.395 0.298,-0.395C0.283,-0.395 0.271,-0.393 0.262,-0.388C0.254,-0.384 0.248,-0.38 0.244,-0.377C0.238,-0.372 0.232,-0.368 0.227,-0.367C0.222,-0.366 0.215,-0.365 0.208,-0.365L0.081,-0.365C0.074,-0.365 0.069,-0.367 0.065,-0.371C0.06,-0.375 0.058,-0.38 0.059,-0.387C0.06,-0.402 0.067,-0.418 0.079,-0.435C0.091,-0.452 0.107,-0.467 0.129,-0.481C0.149,-0.495 0.174,-0.507 0.204,-0.516C0.232,-0.525 0.264,-0.53 0.298,-0.53C0.339,-0.53 0.374,-0.525 0.404,-0.515C0.434,-0.505 0.459,-0.491 0.478,-0.473C0.498,-0.456 0.513,-0.435 0.522,-0.41C0.531,-0.386 0.536,-0.359 0.536,-0.33L0.536,-0.027C0.536,-0.02 0.533,-0.013 0.528,-0.008C0.523,-0.003 0.516,0 0.509,0L0.383,0C0.376,0 0.369,-0.003 0.364,-0.008C0.359,-0.013 0.356,-0.02 0.356,-0.027L0.356,-0.055C0.34,-0.035 0.32,-0.019 0.297,-0.007C0.273,0.004 0.242,0.01 0.203,0.01C0.174,0.01 0.149,0.006 0.127,-0.002C0.104,-0.01 0.085,-0.021 0.071,-0.035C0.056,-0.049 0.044,-0.066 0.036,-0.085C0.028,-0.104 0.024,-0.125 0.024,-0.148ZM0.252,-0.125C0.267,-0.125 0.28,-0.127 0.293,-0.132C0.306,-0.137 0.317,-0.144 0.326,-0.153C0.335,-0.162 0.343,-0.172 0.348,-0.184C0.353,-0.195 0.356,-0.208 0.356,-0.221L0.264,-0.207C0.246,-0.204 0.232,-0.198 0.221,-0.19C0.21,-0.182 0.204,-0.172 0.204,-0.159C0.204,-0.146 0.208,-0.137 0.217,-0.132C0.225,-0.127 0.237,-0.125 0.252,-0.125Z" />
        </g>
        <g transform="matrix(100,0,0,100,327.018,250.903)">
            <path style="fill:rgb(46,108,255);fill-rule:nonzero;"
                d="M0.297,-0.203C0.297,-0.188 0.3,-0.176 0.307,-0.168C0.314,-0.159 0.325,-0.155 0.34,-0.155L0.42,-0.155C0.427,-0.155 0.434,-0.152 0.439,-0.147C0.444,-0.142 0.447,-0.135 0.447,-0.128L0.447,-0.027C0.447,-0.02 0.444,-0.013 0.439,-0.008C0.434,-0.003 0.427,-0 0.42,-0L0.325,-0C0.294,-0 0.265,-0.005 0.239,-0.014C0.214,-0.023 0.192,-0.035 0.174,-0.053C0.156,-0.07 0.142,-0.09 0.132,-0.115C0.122,-0.139 0.117,-0.166 0.117,-0.197L0.117,-0.365L0.043,-0.365C0.036,-0.365 0.029,-0.368 0.024,-0.373C0.019,-0.378 0.016,-0.385 0.016,-0.392L0.016,-0.493C0.016,-0.5 0.019,-0.507 0.024,-0.512C0.029,-0.517 0.036,-0.52 0.043,-0.52L0.117,-0.52L0.117,-0.683C0.117,-0.69 0.12,-0.697 0.125,-0.702C0.13,-0.707 0.137,-0.71 0.144,-0.71L0.27,-0.71C0.277,-0.71 0.284,-0.707 0.289,-0.702C0.294,-0.697 0.297,-0.69 0.297,-0.683L0.297,-0.52L0.41,-0.52C0.417,-0.52 0.424,-0.517 0.429,-0.512C0.434,-0.507 0.437,-0.5 0.437,-0.493L0.437,-0.392C0.437,-0.385 0.434,-0.378 0.429,-0.373C0.424,-0.368 0.417,-0.365 0.41,-0.365L0.297,-0.365L0.297,-0.203Z" />
        </g>
        <g transform="matrix(100,0,0,100,327.018,250.903)">
            <path style="fill:white;"
                d="M0.047,-0.59L0.047,-0.683C0.047,-0.709 0.056,-0.732 0.076,-0.751C0.095,-0.771 0.118,-0.78 0.144,-0.78C0.144,-0.78 0.27,-0.78 0.27,-0.78C0.296,-0.78 0.319,-0.771 0.338,-0.751C0.358,-0.732 0.367,-0.709 0.367,-0.683L0.367,-0.59L0.41,-0.59C0.436,-0.59 0.459,-0.581 0.478,-0.561C0.498,-0.542 0.507,-0.519 0.507,-0.493L0.507,-0.392C0.507,-0.366 0.498,-0.343 0.478,-0.324C0.459,-0.304 0.436,-0.295 0.41,-0.295L0.367,-0.295L0.367,-0.225L0.42,-0.225C0.446,-0.225 0.469,-0.216 0.488,-0.196C0.508,-0.177 0.517,-0.154 0.517,-0.128L0.517,-0.027C0.517,-0.001 0.508,0.022 0.488,0.041C0.469,0.061 0.446,0.07 0.42,0.07L0.325,0.07C0.285,0.07 0.249,0.064 0.216,0.053C0.181,0.04 0.151,0.022 0.126,-0.002C0.101,-0.025 0.081,-0.054 0.067,-0.088C0.054,-0.12 0.047,-0.156 0.047,-0.197L0.047,-0.295L0.043,-0.295C0.017,-0.295 -0.006,-0.304 -0.025,-0.324C-0.045,-0.343 -0.054,-0.366 -0.054,-0.392L-0.054,-0.493C-0.054,-0.519 -0.045,-0.542 -0.025,-0.561C-0.006,-0.581 0.017,-0.59 0.043,-0.59L0.047,-0.59ZM0.297,-0.203C0.297,-0.188 0.3,-0.176 0.307,-0.167C0.314,-0.159 0.325,-0.155 0.34,-0.155L0.42,-0.155C0.427,-0.155 0.434,-0.152 0.439,-0.147C0.444,-0.142 0.447,-0.135 0.447,-0.128L0.447,-0.027C0.447,-0.02 0.444,-0.013 0.439,-0.008C0.434,-0.003 0.427,0 0.42,0L0.325,0C0.294,0 0.265,-0.004 0.239,-0.014C0.214,-0.022 0.192,-0.035 0.174,-0.052C0.156,-0.069 0.142,-0.09 0.132,-0.114C0.122,-0.139 0.117,-0.166 0.117,-0.197L0.117,-0.365L0.043,-0.365C0.036,-0.365 0.029,-0.368 0.024,-0.373C0.019,-0.378 0.016,-0.385 0.016,-0.392L0.016,-0.493C0.016,-0.5 0.019,-0.507 0.024,-0.512C0.029,-0.517 0.036,-0.52 0.043,-0.52L0.117,-0.52L0.117,-0.683C0.117,-0.69 0.12,-0.697 0.125,-0.702C0.13,-0.707 0.137,-0.71 0.144,-0.71L0.27,-0.71C0.277,-0.71 0.284,-0.707 0.289,-0.702C0.294,-0.697 0.297,-0.69 0.297,-0.683L0.297,-0.52L0.41,-0.52C0.417,-0.52 0.424,-0.517 0.429,-0.512C0.434,-0.507 0.437,-0.5 0.437,-0.493L0.437,-0.392C0.437,-0.385 0.434,-0.378 0.429,-0.373C0.424,-0.368 0.417,-0.365 0.41,-0.365L0.297,-0.365L0.297,-0.203Z" />
        </g>
        <g transform="matrix(100,0,0,100,374.418,250.903)">
            <path style="fill:rgb(46,108,255);fill-rule:nonzero;"
                d="M0.591,-0.027C0.591,-0.02 0.588,-0.013 0.583,-0.008C0.578,-0.003 0.571,-0 0.564,-0L0.438,-0C0.431,-0 0.424,-0.003 0.419,-0.008C0.414,-0.013 0.411,-0.02 0.411,-0.027L0.411,-0.28C0.411,-0.309 0.404,-0.332 0.39,-0.349C0.376,-0.366 0.354,-0.375 0.324,-0.375C0.294,-0.375 0.272,-0.366 0.259,-0.349C0.245,-0.332 0.238,-0.309 0.238,-0.28L0.238,-0.027C0.238,-0.02 0.235,-0.013 0.23,-0.008C0.225,-0.003 0.218,-0 0.211,-0L0.085,-0C0.078,-0 0.071,-0.003 0.066,-0.008C0.061,-0.013 0.058,-0.02 0.058,-0.027L0.058,-0.683C0.058,-0.69 0.061,-0.697 0.066,-0.702C0.071,-0.707 0.078,-0.71 0.085,-0.71L0.211,-0.71C0.218,-0.71 0.225,-0.707 0.23,-0.702C0.235,-0.697 0.238,-0.69 0.238,-0.683L0.238,-0.47C0.249,-0.484 0.267,-0.498 0.291,-0.51C0.315,-0.524 0.343,-0.53 0.374,-0.53C0.406,-0.53 0.435,-0.526 0.462,-0.517C0.489,-0.507 0.511,-0.494 0.531,-0.475C0.55,-0.456 0.564,-0.433 0.575,-0.404C0.586,-0.375 0.591,-0.341 0.591,-0.302L0.591,-0.027Z" />
        </g>
        <g transform="matrix(100,0,0,100,374.418,250.903)">
            <path style="fill:white;"
                d="M0.312,-0.304C0.308,-0.297 0.308,-0.289 0.308,-0.28C0.308,-0.28 0.308,-0.027 0.308,-0.027C0.308,-0.001 0.299,0.022 0.279,0.041C0.26,0.061 0.237,0.07 0.211,0.07L0.085,0.07C0.059,0.07 0.036,0.061 0.017,0.041C-0.003,0.022 -0.012,-0.001 -0.012,-0.027L-0.012,-0.683C-0.012,-0.709 -0.003,-0.732 0.017,-0.751C0.036,-0.771 0.059,-0.78 0.085,-0.78C0.085,-0.78 0.211,-0.78 0.211,-0.78C0.237,-0.78 0.26,-0.771 0.279,-0.751C0.299,-0.732 0.308,-0.709 0.308,-0.683L0.308,-0.592C0.329,-0.597 0.351,-0.6 0.374,-0.6C0.414,-0.6 0.451,-0.594 0.484,-0.583C0.521,-0.57 0.553,-0.551 0.58,-0.525C0.605,-0.499 0.626,-0.467 0.641,-0.428C0.654,-0.393 0.661,-0.351 0.661,-0.302L0.661,-0.027C0.661,-0.001 0.652,0.022 0.632,0.041C0.613,0.061 0.59,0.07 0.564,0.07L0.438,0.07C0.412,0.07 0.389,0.061 0.37,0.041C0.35,0.022 0.341,-0.001 0.341,-0.027L0.341,-0.28C0.341,-0.289 0.341,-0.297 0.337,-0.303C0.334,-0.304 0.328,-0.305 0.324,-0.305C0.32,-0.305 0.314,-0.304 0.312,-0.304ZM0.591,-0.027C0.591,-0.02 0.588,-0.013 0.583,-0.008C0.578,-0.003 0.571,0 0.564,0L0.438,0C0.431,0 0.424,-0.003 0.419,-0.008C0.414,-0.013 0.411,-0.02 0.411,-0.027L0.411,-0.28C0.411,-0.309 0.404,-0.332 0.39,-0.349C0.376,-0.366 0.354,-0.375 0.324,-0.375C0.294,-0.375 0.272,-0.366 0.258,-0.349C0.245,-0.332 0.238,-0.309 0.238,-0.28L0.238,-0.027C0.238,-0.02 0.235,-0.013 0.23,-0.008C0.225,-0.003 0.218,0 0.211,0L0.085,0C0.078,0 0.071,-0.003 0.066,-0.008C0.061,-0.013 0.058,-0.02 0.058,-0.027L0.058,-0.683C0.058,-0.69 0.061,-0.697 0.066,-0.702C0.071,-0.707 0.078,-0.71 0.085,-0.71L0.211,-0.71C0.218,-0.71 0.225,-0.707 0.23,-0.702C0.235,-0.697 0.238,-0.69 0.238,-0.683L0.238,-0.47C0.249,-0.484 0.267,-0.497 0.291,-0.51C0.315,-0.523 0.343,-0.53 0.374,-0.53C0.406,-0.53 0.435,-0.526 0.462,-0.516C0.489,-0.507 0.511,-0.494 0.531,-0.475C0.549,-0.456 0.564,-0.433 0.575,-0.404C0.586,-0.375 0.591,-0.341 0.591,-0.302L0.591,-0.027Z" />
        </g>
        <g transform="matrix(100,0,0,100,438.818,250.903)">
            <path style="fill:rgb(46,108,255);fill-rule:nonzero;"
                d="M0.047,-0.439C0.049,-0.476 0.057,-0.511 0.071,-0.545C0.086,-0.578 0.106,-0.606 0.133,-0.63C0.159,-0.655 0.191,-0.674 0.229,-0.689C0.266,-0.703 0.31,-0.71 0.359,-0.71C0.408,-0.71 0.451,-0.703 0.489,-0.689C0.527,-0.674 0.559,-0.655 0.586,-0.63C0.612,-0.606 0.632,-0.578 0.647,-0.545C0.661,-0.511 0.669,-0.476 0.671,-0.439C0.672,-0.41 0.673,-0.38 0.673,-0.349C0.673,-0.318 0.672,-0.288 0.671,-0.261C0.669,-0.224 0.661,-0.189 0.647,-0.156C0.632,-0.123 0.612,-0.094 0.586,-0.069C0.559,-0.044 0.527,-0.025 0.489,-0.011C0.451,0.003 0.408,0.01 0.359,0.01C0.31,0.01 0.266,0.003 0.229,-0.011C0.191,-0.025 0.159,-0.044 0.133,-0.069C0.106,-0.094 0.086,-0.123 0.071,-0.156C0.057,-0.189 0.049,-0.224 0.047,-0.261C0.046,-0.288 0.045,-0.318 0.045,-0.349C0.045,-0.38 0.046,-0.41 0.047,-0.439ZM0.486,-0.266C0.487,-0.278 0.487,-0.291 0.488,-0.306C0.489,-0.321 0.489,-0.336 0.489,-0.351C0.489,-0.366 0.489,-0.381 0.488,-0.396C0.487,-0.41 0.487,-0.423 0.486,-0.434C0.485,-0.451 0.481,-0.466 0.475,-0.48C0.47,-0.494 0.462,-0.506 0.452,-0.517C0.441,-0.527 0.428,-0.535 0.413,-0.541C0.398,-0.547 0.38,-0.55 0.359,-0.55C0.338,-0.55 0.32,-0.547 0.305,-0.541C0.29,-0.535 0.277,-0.527 0.267,-0.517C0.256,-0.506 0.248,-0.494 0.243,-0.48C0.237,-0.466 0.233,-0.451 0.232,-0.434C0.231,-0.423 0.23,-0.41 0.23,-0.396C0.229,-0.381 0.229,-0.366 0.229,-0.351C0.229,-0.336 0.229,-0.321 0.23,-0.306C0.23,-0.291 0.231,-0.278 0.232,-0.266C0.235,-0.233 0.246,-0.205 0.267,-0.183C0.287,-0.161 0.318,-0.15 0.359,-0.15C0.4,-0.15 0.431,-0.161 0.451,-0.183C0.471,-0.205 0.483,-0.233 0.486,-0.266Z" />
        </g>
        <g transform="matrix(100,0,0,100,438.818,250.903)">
            <path style="fill:white;"
                d="M-0.023,-0.442C-0.024,-0.413 -0.025,-0.381 -0.025,-0.349C-0.025,-0.316 -0.024,-0.286 -0.023,-0.258C-0.02,-0.211 -0.01,-0.168 0.007,-0.128C0.025,-0.086 0.051,-0.049 0.085,-0.018C0.117,0.013 0.157,0.037 0.204,0.055C0.249,0.071 0.3,0.08 0.359,0.08C0.417,0.08 0.468,0.071 0.513,0.055C0.561,0.037 0.601,0.013 0.633,-0.018C0.667,-0.049 0.693,-0.086 0.711,-0.128C0.728,-0.168 0.738,-0.211 0.741,-0.257C0.742,-0.286 0.743,-0.316 0.743,-0.349C0.743,-0.381 0.742,-0.413 0.741,-0.442C0.738,-0.489 0.728,-0.532 0.711,-0.572C0.692,-0.614 0.667,-0.651 0.633,-0.682C0.6,-0.712 0.561,-0.736 0.514,-0.754C0.468,-0.771 0.417,-0.78 0.359,-0.78C0.3,-0.78 0.248,-0.771 0.204,-0.754C0.157,-0.736 0.118,-0.712 0.085,-0.682C0.051,-0.651 0.026,-0.614 0.007,-0.572C-0.01,-0.532 -0.02,-0.489 -0.023,-0.443L-0.023,-0.442ZM0.047,-0.439C0.049,-0.476 0.057,-0.511 0.071,-0.544C0.086,-0.577 0.106,-0.606 0.132,-0.631C0.159,-0.655 0.191,-0.674 0.229,-0.688C0.266,-0.703 0.31,-0.71 0.359,-0.71C0.408,-0.71 0.451,-0.703 0.489,-0.688C0.527,-0.674 0.559,-0.655 0.586,-0.631C0.612,-0.606 0.632,-0.577 0.646,-0.544C0.661,-0.511 0.669,-0.476 0.671,-0.439C0.672,-0.41 0.673,-0.38 0.673,-0.349C0.673,-0.318 0.672,-0.288 0.671,-0.261C0.669,-0.224 0.661,-0.188 0.646,-0.155C0.632,-0.122 0.612,-0.094 0.586,-0.069C0.559,-0.044 0.527,-0.025 0.489,-0.011C0.451,0.003 0.408,0.01 0.359,0.01C0.31,0.01 0.266,0.003 0.229,-0.011C0.191,-0.025 0.159,-0.044 0.132,-0.069C0.106,-0.094 0.086,-0.122 0.071,-0.155C0.057,-0.188 0.049,-0.224 0.047,-0.261C0.046,-0.288 0.045,-0.318 0.045,-0.349C0.045,-0.38 0.046,-0.41 0.047,-0.439ZM0.486,-0.266C0.487,-0.278 0.487,-0.291 0.488,-0.306C0.489,-0.321 0.489,-0.336 0.489,-0.351C0.489,-0.366 0.489,-0.381 0.488,-0.395C0.487,-0.41 0.487,-0.423 0.486,-0.434C0.485,-0.451 0.481,-0.466 0.476,-0.48C0.47,-0.494 0.462,-0.506 0.451,-0.516C0.441,-0.527 0.428,-0.535 0.413,-0.541C0.398,-0.547 0.38,-0.55 0.359,-0.55C0.338,-0.55 0.32,-0.547 0.305,-0.541C0.29,-0.535 0.277,-0.527 0.266,-0.516C0.256,-0.506 0.248,-0.494 0.243,-0.48C0.237,-0.466 0.233,-0.451 0.232,-0.434C0.231,-0.423 0.23,-0.41 0.229,-0.395C0.229,-0.381 0.229,-0.366 0.229,-0.351C0.229,-0.336 0.229,-0.321 0.229,-0.306C0.23,-0.291 0.231,-0.278 0.232,-0.266C0.235,-0.233 0.246,-0.205 0.266,-0.183C0.287,-0.161 0.318,-0.15 0.359,-0.15C0.4,-0.15 0.431,-0.161 0.451,-0.183C0.471,-0.205 0.483,-0.233 0.486,-0.266ZM0.416,-0.272L0.418,-0.309C0.419,-0.323 0.419,-0.337 0.419,-0.351C0.419,-0.365 0.419,-0.379 0.418,-0.392C0.417,-0.406 0.417,-0.419 0.416,-0.428C0.415,-0.438 0.414,-0.446 0.411,-0.454C0.409,-0.459 0.406,-0.463 0.402,-0.467C0.398,-0.471 0.393,-0.474 0.387,-0.476C0.379,-0.479 0.37,-0.48 0.359,-0.48C0.348,-0.48 0.339,-0.479 0.331,-0.476C0.325,-0.474 0.32,-0.471 0.316,-0.467C0.312,-0.463 0.309,-0.459 0.307,-0.454C0.304,-0.446 0.303,-0.438 0.302,-0.428C0.302,-0.428 0.302,-0.427 0.302,-0.426C0.3,-0.416 0.3,-0.406 0.299,-0.394C0.299,-0.38 0.299,-0.366 0.299,-0.351C0.299,-0.336 0.299,-0.322 0.299,-0.308C0.3,-0.295 0.3,-0.284 0.302,-0.274C0.302,-0.273 0.302,-0.272 0.302,-0.272C0.303,-0.255 0.308,-0.241 0.318,-0.231C0.327,-0.221 0.341,-0.22 0.359,-0.22C0.377,-0.22 0.391,-0.221 0.399,-0.23C0.409,-0.241 0.414,-0.255 0.416,-0.272Z" />
        </g>
        <g transform="matrix(100,0,0,100,510.618,250.903)">
            <path style="fill:rgb(46,108,255);fill-rule:nonzero;"
                d="M0.372,0.01C0.353,0.01 0.336,0.008 0.321,0.004C0.306,-0 0.294,-0.005 0.283,-0.011C0.272,-0.017 0.263,-0.024 0.256,-0.031C0.249,-0.038 0.243,-0.044 0.238,-0.05L0.238,0.163C0.238,0.17 0.235,0.177 0.23,0.182C0.225,0.187 0.218,0.19 0.211,0.19L0.085,0.19C0.078,0.19 0.071,0.187 0.066,0.182C0.061,0.177 0.058,0.17 0.058,0.163L0.058,-0.493C0.058,-0.5 0.061,-0.507 0.066,-0.512C0.071,-0.517 0.078,-0.52 0.085,-0.52L0.206,-0.52C0.213,-0.52 0.22,-0.517 0.225,-0.512C0.23,-0.507 0.233,-0.5 0.233,-0.493L0.233,-0.47C0.239,-0.477 0.246,-0.484 0.253,-0.491C0.26,-0.498 0.268,-0.505 0.279,-0.51C0.289,-0.516 0.302,-0.521 0.317,-0.525C0.332,-0.528 0.35,-0.53 0.372,-0.53C0.402,-0.53 0.43,-0.526 0.457,-0.517C0.484,-0.507 0.507,-0.494 0.527,-0.474C0.547,-0.456 0.563,-0.432 0.576,-0.403C0.588,-0.374 0.595,-0.34 0.596,-0.301C0.597,-0.291 0.597,-0.278 0.597,-0.261C0.597,-0.244 0.597,-0.23 0.596,-0.22C0.595,-0.181 0.588,-0.147 0.576,-0.118C0.563,-0.089 0.547,-0.066 0.527,-0.047C0.507,-0.028 0.484,-0.013 0.457,-0.004C0.43,0.005 0.402,0.01 0.372,0.01ZM0.417,-0.232C0.419,-0.251 0.419,-0.269 0.417,-0.288C0.415,-0.311 0.407,-0.332 0.394,-0.349C0.381,-0.366 0.358,-0.375 0.327,-0.375C0.312,-0.375 0.3,-0.373 0.289,-0.368C0.278,-0.363 0.27,-0.357 0.263,-0.349C0.256,-0.342 0.25,-0.333 0.246,-0.324C0.242,-0.315 0.239,-0.305 0.238,-0.295C0.237,-0.285 0.236,-0.273 0.236,-0.26C0.236,-0.247 0.237,-0.235 0.238,-0.225C0.239,-0.215 0.242,-0.205 0.246,-0.196C0.25,-0.187 0.256,-0.178 0.263,-0.171C0.27,-0.163 0.278,-0.157 0.289,-0.152C0.3,-0.147 0.312,-0.145 0.327,-0.145C0.358,-0.145 0.381,-0.154 0.394,-0.171C0.407,-0.188 0.415,-0.209 0.417,-0.232Z" />
        </g>
        <g transform="matrix(100,0,0,100,510.618,250.903)">
            <path style="fill:white;"
                d="M0.255,-0.577C0.268,-0.583 0.283,-0.588 0.3,-0.592C0.319,-0.597 0.343,-0.6 0.372,-0.6C0.41,-0.6 0.446,-0.594 0.479,-0.583C0.516,-0.57 0.548,-0.551 0.575,-0.525C0.602,-0.5 0.623,-0.469 0.64,-0.431C0.655,-0.395 0.664,-0.353 0.666,-0.304C0.667,-0.293 0.667,-0.279 0.667,-0.26C0.667,-0.242 0.667,-0.228 0.666,-0.217C0.664,-0.168 0.655,-0.126 0.64,-0.09C0.623,-0.052 0.602,-0.021 0.575,0.004C0.548,0.03 0.516,0.049 0.48,0.062C0.446,0.074 0.41,0.08 0.372,0.08C0.348,0.08 0.327,0.077 0.308,0.073L0.308,0.163C0.308,0.189 0.299,0.212 0.279,0.231C0.26,0.251 0.237,0.26 0.211,0.26L0.085,0.26C0.059,0.26 0.036,0.251 0.017,0.231C-0.003,0.212 -0.012,0.189 -0.012,0.163L-0.012,-0.493C-0.012,-0.519 -0.003,-0.542 0.017,-0.561C0.036,-0.581 0.059,-0.59 0.085,-0.59L0.206,-0.59C0.224,-0.59 0.24,-0.586 0.255,-0.577ZM0.372,0.01C0.353,0.01 0.336,0.008 0.321,0.004C0.306,-0 0.294,-0.005 0.283,-0.011C0.272,-0.017 0.263,-0.023 0.256,-0.03C0.249,-0.037 0.243,-0.044 0.238,-0.05L0.238,0.163C0.238,0.17 0.235,0.177 0.23,0.182C0.225,0.187 0.218,0.19 0.211,0.19L0.085,0.19C0.078,0.19 0.071,0.187 0.066,0.182C0.061,0.177 0.058,0.17 0.058,0.163L0.058,-0.493C0.058,-0.5 0.061,-0.507 0.066,-0.512C0.071,-0.517 0.078,-0.52 0.085,-0.52L0.206,-0.52C0.213,-0.52 0.22,-0.517 0.225,-0.512C0.23,-0.507 0.233,-0.5 0.233,-0.493L0.233,-0.47C0.239,-0.477 0.246,-0.484 0.252,-0.491C0.26,-0.498 0.268,-0.505 0.279,-0.51C0.289,-0.516 0.301,-0.521 0.317,-0.524C0.332,-0.528 0.35,-0.53 0.372,-0.53C0.402,-0.53 0.43,-0.526 0.457,-0.516C0.484,-0.507 0.507,-0.493 0.527,-0.474C0.547,-0.455 0.563,-0.432 0.576,-0.403C0.588,-0.374 0.595,-0.34 0.596,-0.301C0.597,-0.291 0.597,-0.277 0.597,-0.26C0.597,-0.244 0.597,-0.23 0.596,-0.22C0.595,-0.181 0.588,-0.147 0.576,-0.118C0.563,-0.089 0.547,-0.066 0.527,-0.046C0.507,-0.027 0.484,-0.013 0.457,-0.004C0.43,0.005 0.402,0.01 0.372,0.01ZM0.417,-0.232C0.419,-0.251 0.419,-0.269 0.417,-0.288C0.415,-0.311 0.407,-0.332 0.394,-0.349C0.381,-0.366 0.358,-0.375 0.327,-0.375C0.312,-0.375 0.3,-0.373 0.289,-0.368C0.278,-0.363 0.269,-0.357 0.263,-0.349C0.256,-0.342 0.25,-0.333 0.246,-0.324C0.242,-0.315 0.239,-0.305 0.238,-0.295C0.237,-0.285 0.236,-0.273 0.236,-0.26C0.236,-0.247 0.237,-0.235 0.238,-0.225C0.239,-0.215 0.242,-0.205 0.246,-0.196C0.25,-0.187 0.256,-0.178 0.263,-0.171C0.269,-0.163 0.278,-0.157 0.289,-0.152C0.3,-0.147 0.312,-0.145 0.327,-0.145C0.358,-0.145 0.381,-0.154 0.394,-0.171C0.407,-0.188 0.415,-0.209 0.417,-0.232ZM0.341,-0.303C0.338,-0.304 0.331,-0.305 0.327,-0.305C0.323,-0.305 0.32,-0.305 0.317,-0.304C0.316,-0.303 0.315,-0.303 0.314,-0.302C0.313,-0.301 0.311,-0.299 0.31,-0.296C0.309,-0.293 0.308,-0.289 0.307,-0.286C0.306,-0.278 0.306,-0.27 0.306,-0.26C0.306,-0.25 0.306,-0.242 0.307,-0.234C0.308,-0.231 0.309,-0.227 0.31,-0.224C0.311,-0.221 0.313,-0.219 0.314,-0.218C0.315,-0.217 0.316,-0.217 0.317,-0.216C0.32,-0.215 0.323,-0.215 0.327,-0.215C0.331,-0.215 0.338,-0.216 0.341,-0.217C0.344,-0.223 0.347,-0.23 0.347,-0.238C0.347,-0.238 0.347,-0.239 0.347,-0.239C0.349,-0.253 0.349,-0.267 0.347,-0.281C0.347,-0.281 0.347,-0.282 0.347,-0.282C0.347,-0.29 0.344,-0.297 0.341,-0.303Z" />
        </g>
        <g transform="matrix(100,0,0,100,574.018,250.903)">
            <path style="fill:rgb(46,108,255);fill-rule:nonzero;"
                d="M0.352,-0.156C0.352,-0.163 0.349,-0.169 0.344,-0.173C0.34,-0.177 0.331,-0.18 0.319,-0.183C0.307,-0.186 0.291,-0.188 0.272,-0.191C0.252,-0.194 0.227,-0.198 0.198,-0.203C0.147,-0.212 0.108,-0.231 0.081,-0.259C0.054,-0.287 0.04,-0.324 0.04,-0.369C0.04,-0.392 0.046,-0.413 0.057,-0.432C0.068,-0.451 0.084,-0.468 0.105,-0.483C0.125,-0.498 0.149,-0.509 0.178,-0.518C0.207,-0.526 0.239,-0.53 0.274,-0.53C0.309,-0.53 0.341,-0.526 0.37,-0.518C0.399,-0.509 0.425,-0.499 0.446,-0.486C0.467,-0.472 0.484,-0.458 0.497,-0.441C0.509,-0.424 0.516,-0.407 0.517,-0.39C0.518,-0.383 0.515,-0.376 0.509,-0.371C0.504,-0.366 0.497,-0.363 0.49,-0.363L0.371,-0.363C0.364,-0.363 0.358,-0.365 0.354,-0.368C0.349,-0.371 0.344,-0.375 0.338,-0.379C0.332,-0.383 0.324,-0.387 0.315,-0.39C0.305,-0.393 0.291,-0.395 0.274,-0.395C0.259,-0.395 0.246,-0.393 0.235,-0.389C0.225,-0.384 0.22,-0.377 0.22,-0.367C0.22,-0.36 0.222,-0.354 0.225,-0.35C0.228,-0.346 0.235,-0.343 0.245,-0.341C0.255,-0.338 0.269,-0.336 0.287,-0.333C0.305,-0.33 0.329,-0.327 0.358,-0.322C0.419,-0.312 0.463,-0.292 0.491,-0.261C0.518,-0.23 0.532,-0.194 0.532,-0.154C0.532,-0.131 0.526,-0.11 0.515,-0.091C0.504,-0.071 0.487,-0.054 0.465,-0.039C0.443,-0.024 0.416,-0.012 0.385,-0.003C0.354,0.006 0.318,0.01 0.278,0.01C0.238,0.01 0.203,0.005 0.172,-0.004C0.142,-0.013 0.117,-0.024 0.096,-0.038C0.075,-0.052 0.059,-0.067 0.049,-0.084C0.038,-0.101 0.031,-0.117 0.03,-0.133C0.029,-0.14 0.032,-0.147 0.038,-0.152C0.043,-0.157 0.05,-0.16 0.057,-0.16L0.181,-0.16C0.188,-0.16 0.194,-0.158 0.197,-0.155C0.2,-0.151 0.205,-0.147 0.21,-0.142C0.215,-0.138 0.223,-0.134 0.233,-0.131C0.243,-0.127 0.258,-0.125 0.278,-0.125C0.298,-0.125 0.315,-0.128 0.33,-0.133C0.345,-0.138 0.352,-0.146 0.352,-0.156Z" />
        </g>
        <g transform="matrix(100,0,0,100,574.018,250.903)">
            <path style="fill:white;"
                d="M0.02,-0.223C-0.013,-0.261 -0.03,-0.31 -0.03,-0.369C-0.03,-0.404 -0.021,-0.437 -0.003,-0.467C0.013,-0.495 0.035,-0.519 0.064,-0.54C0.09,-0.559 0.121,-0.574 0.158,-0.585C0.193,-0.595 0.231,-0.6 0.274,-0.6C0.316,-0.6 0.354,-0.595 0.389,-0.585C0.425,-0.575 0.456,-0.561 0.482,-0.545C0.512,-0.527 0.536,-0.506 0.553,-0.482C0.574,-0.453 0.585,-0.424 0.587,-0.396C0.589,-0.367 0.58,-0.341 0.557,-0.32C0.553,-0.315 0.547,-0.311 0.542,-0.308L0.543,-0.307C0.582,-0.263 0.602,-0.211 0.602,-0.154C0.602,-0.119 0.593,-0.086 0.576,-0.056C0.559,-0.027 0.536,-0.002 0.504,0.019C0.477,0.038 0.443,0.054 0.404,0.064C0.367,0.075 0.325,0.08 0.278,0.08C0.23,0.08 0.189,0.074 0.153,0.064C0.115,0.052 0.083,0.038 0.057,0.02C0.028,0 0.006,-0.022 -0.01,-0.045C-0.028,-0.073 -0.038,-0.101 -0.04,-0.127C-0.042,-0.156 -0.033,-0.182 -0.01,-0.203C-0.001,-0.212 0.009,-0.218 0.02,-0.223ZM0.352,-0.156C0.352,-0.163 0.349,-0.169 0.345,-0.173C0.339,-0.177 0.331,-0.18 0.319,-0.183C0.307,-0.186 0.291,-0.188 0.271,-0.191C0.252,-0.194 0.227,-0.198 0.198,-0.203C0.147,-0.212 0.108,-0.231 0.081,-0.259C0.054,-0.287 0.04,-0.324 0.04,-0.369C0.04,-0.392 0.046,-0.413 0.057,-0.432C0.068,-0.451 0.084,-0.468 0.104,-0.483C0.125,-0.498 0.149,-0.509 0.178,-0.517C0.207,-0.526 0.239,-0.53 0.274,-0.53C0.309,-0.53 0.341,-0.526 0.37,-0.517C0.399,-0.509 0.425,-0.498 0.446,-0.486C0.467,-0.472 0.484,-0.458 0.496,-0.441C0.509,-0.423 0.516,-0.407 0.517,-0.39C0.518,-0.383 0.515,-0.376 0.509,-0.371C0.504,-0.366 0.497,-0.363 0.49,-0.363L0.371,-0.363C0.364,-0.363 0.358,-0.365 0.354,-0.368C0.349,-0.371 0.344,-0.375 0.338,-0.379C0.332,-0.383 0.324,-0.387 0.314,-0.39C0.305,-0.393 0.291,-0.395 0.274,-0.395C0.259,-0.395 0.246,-0.393 0.236,-0.388C0.225,-0.384 0.22,-0.377 0.22,-0.367C0.22,-0.36 0.222,-0.354 0.225,-0.35C0.228,-0.346 0.235,-0.343 0.245,-0.341C0.255,-0.338 0.269,-0.336 0.287,-0.333C0.305,-0.33 0.329,-0.327 0.358,-0.322C0.419,-0.312 0.463,-0.291 0.49,-0.26C0.518,-0.229 0.532,-0.194 0.532,-0.154C0.532,-0.131 0.526,-0.11 0.515,-0.091C0.504,-0.071 0.487,-0.054 0.465,-0.038C0.443,-0.023 0.416,-0.012 0.385,-0.003C0.354,0.006 0.318,0.01 0.278,0.01C0.238,0.01 0.203,0.005 0.172,-0.003C0.142,-0.012 0.117,-0.024 0.096,-0.038C0.075,-0.052 0.059,-0.067 0.048,-0.084C0.037,-0.101 0.031,-0.117 0.03,-0.133C0.029,-0.14 0.032,-0.147 0.037,-0.152C0.043,-0.157 0.05,-0.16 0.057,-0.16L0.181,-0.16C0.188,-0.16 0.194,-0.158 0.197,-0.154C0.2,-0.151 0.205,-0.147 0.21,-0.142C0.215,-0.138 0.223,-0.134 0.233,-0.131C0.243,-0.127 0.258,-0.125 0.278,-0.125C0.298,-0.125 0.315,-0.128 0.33,-0.133C0.345,-0.138 0.352,-0.146 0.352,-0.156Z" />
        </g>
    </g>
</svg>
